<svg version="1.1" viewBox="0 0 96 96" xmlns="http://www.w3.org/2000/svg" xmlns:xlink="http://www.w3.org/1999/xlink" id="Icons_Tag" overflow="hidden"><path d=" M 33 39 C 30.8 39 29 37.2 29 35 C 29 33.6 29.8 32.3 30.9 31.6 C 30.9 32.3 31 33.1 31 34 C 31 35.1 31.9 36 33 36 C 34.1 36 35 35.1 35 34 C 35 33.1 35 32.3 34.9 31.5 C 36.1 32.2 37 33.5 37 35 C 37 37.2 35.2 39 33 39 Z M 82.2 56.2 L 54.2 28.2 C 53.4 27.4 52.4 27 51.4 27 L 34.2 27 C 33.1 23.5 31 21.7 27.4 21 C 26.1 20.8 25 20.6 23.9 20.4 C 18.2 19.6 17 19.4 17 13 C 17 11.9 16.1 11 15 11 C 13.9 11 13 11.9 13 13 C 13 22.4 16.7 23.4 23.3 24.4 C 24.3 24.6 25.4 24.7 26.7 25 C 28 25.3 29.4 25.5 30.2 27.6 C 27.2 28.8 25.1 31.7 25.1 35.1 L 25.1 53.4 C 25.1 54.5 25.5 55.5 26.3 56.2 L 54.3 84.2 C 55 85 56 85.3 57 85.3 C 58 85.3 59 84.9 59.8 84.1 L 82.1 61.8 C 83.7 60.3 83.7 57.7 82.2 56.2 Z" stroke="none" stroke-width="1" stroke-dasharray="" stroke-dashoffset="1" fill="#92D050" fill-opacity="1"/></svg>