<svg version="1.1" viewBox="0 0 96 96" xmlns="http://www.w3.org/2000/svg" xmlns:xlink="http://www.w3.org/1999/xlink" id="Icons_Handshake" overflow="hidden"><path d=" M 44.9 72.4 C 44.4 72.4 43.8 72.3 43.4 71.9 C 42.6 71.2 42.5 69.9 43.2 69.1 L 47.1 64.6 C 47.8 63.8 49.1 63.7 49.9 64.4 C 50.7 65.1 50.8 66.4 50.1 67.2 L 46.2 71.7 C 45.9 72.1 45.4 72.3 44.9 72.4 Z" stroke="none" stroke-width="1" stroke-dasharray="" stroke-dashoffset="1" fill="#7030A0" fill-opacity="1"/><path d=" M 38.8 70.1 C 38.1 70.2 37.5 70 36.9 69.5 C 35.9 68.6 35.8 67 36.7 66 L 41.3 60.7 C 42.2 59.7 43.8 59.6 44.8 60.5 C 45.8 61.4 45.9 63 45 64 L 40.4 69.3 C 40 69.8 39.4 70.1 38.8 70.1 Z" stroke="none" stroke-width="1" stroke-dasharray="" stroke-dashoffset="1" fill="#7030A0" fill-opacity="1"/><path d=" M 32.5 66.4 C 31.7 66.5 30.9 66.2 30.3 65.7 C 29.1 64.6 28.9 62.7 30 61.5 L 34.6 56.2 C 35.7 55 37.6 54.8 38.8 55.9 C 40 57 40.2 58.9 39.1 60.1 L 34.5 65.4 C 34 66 33.2 66.4 32.5 66.4 Z" stroke="none" stroke-width="1" stroke-dasharray="" stroke-dashoffset="1" fill="#7030A0" fill-opacity="1"/><path d=" M 25.2 62.7 C 24.4 62.8 23.6 62.5 23 62 C 21.8 60.9 21.6 59 22.7 57.8 L 28 51.8 C 29.1 50.6 31 50.4 32.2 51.5 C 33.4 52.6 33.6 54.5 32.5 55.7 L 27.2 61.7 C 26.6 62.3 25.9 62.6 25.2 62.7 Z" stroke="none" stroke-width="1" stroke-dasharray="" stroke-dashoffset="1" fill="#7030A0" fill-opacity="1"/><path d=" M 4.6 40.7 L 12.3 45.4 C 13.2 46 14.5 45.7 15 44.7 L 24.3 29.3 C 24.9 28.4 24.6 27.1 23.6 26.6 L 16 21.9 L 4.6 40.7 Z" stroke="none" stroke-width="1" stroke-dasharray="" stroke-dashoffset="1" fill="#7030A0" fill-opacity="1"/><path d=" M 69.4 53.8 L 53.3 40 L 52.2 39 L 45.3 46.9 C 44.3 48.1 42.9 48.8 41.3 48.9 C 41.1 48.9 40.9 48.9 40.8 48.9 C 39.3 48.9 37.9 48.4 36.9 47.4 C 34.4 45.2 34.2 41.4 36.3 38.9 L 42.2 32.1 C 37.6 31.5 31.7 33.9 25.6 30.9 L 16.9 45.3 L 23.7 53.2 L 26.3 50.2 C 27.2 49.1 28.6 48.5 30.1 48.5 L 30.1 48.5 C 31.3 48.5 32.5 48.9 33.4 49.7 C 34.5 50.6 35 51.9 35.1 53.3 C 35.6 53.1 36.2 53 36.8 53 C 38 53 39.2 53.4 40.1 54.2 C 41.2 55.2 41.8 56.5 41.8 57.9 C 42.2 57.8 42.7 57.7 43.1 57.7 L 43.1 57.7 C 44.2 57.7 45.2 58.1 46.1 58.8 C 47 59.6 47.5 60.7 47.6 61.9 C 47.9 61.8 48.3 61.7 48.7 61.7 L 48.7 61.7 C 49.7 61.7 50.6 62 51.3 62.7 C 52.1 63.4 52.6 64.4 52.7 65.4 C 52.8 66.5 52.4 67.5 51.7 68.3 L 48.3 72.2 L 49.7 73.3 C 50.4 73.7 51.2 74 52.1 73.9 C 54.3 73.7 55.9 71.8 55.7 69.6 C 55.7 69.6 55.7 69.5 55.7 69.5 C 56 69.6 56.4 69.6 56.7 69.6 C 58.9 69.4 60.5 67.5 60.3 65.3 C 60.3 65.3 60.3 65.2 60.3 65.2 C 60.6 65.3 61 65.3 61.3 65.3 C 63.5 65.1 65.1 63.2 64.9 61 C 64.9 60.8 64.8 60.6 64.8 60.4 C 65.4 60.7 66.1 60.9 66.9 60.8 C 69.1 60.6 70.7 58.7 70.5 56.5 C 70.6 55.4 70.1 54.5 69.4 53.8 Z" stroke="none" stroke-width="1" stroke-dasharray="" stroke-dashoffset="1" fill="#7030A0" fill-opacity="1"/><path d=" M 91.4 40.7 L 83.7 45.4 C 82.8 46 81.5 45.7 81 44.7 L 71.7 29.3 C 71.1 28.4 71.4 27.1 72.4 26.6 L 80.1 21.9 L 91.4 40.7 Z" stroke="none" stroke-width="1" stroke-dasharray="" stroke-dashoffset="1" fill="#7030A0" fill-opacity="1"/><path d=" M 70.5 31.3 C 62.2 34.3 56.2 31.4 49.5 30.1 C 49.4 30.1 49 30 49 30 C 47.8 29.9 46.5 30.3 45.6 31.3 L 37.7 40.3 C 36.2 42 36.4 44.5 38.1 45.9 C 39 46.6 40 47 41.1 46.9 C 42.1 46.8 43.1 46.4 43.8 45.5 C 43.8 45.5 52 36.1 52 36.1 L 70.7 52.2 L 70.7 52.2 L 70.7 52.2 C 71.2 52.7 71.4 52.9 71.8 53.5 L 79 45.2 L 70.5 31.3 Z" stroke="none" stroke-width="1" stroke-dasharray="" stroke-dashoffset="1" fill="#7030A0" fill-opacity="1"/></svg>